# xmcd
#
# Track frame offsets: 
#        150
#        19162
#        31127
#        49070
#        66457
#        84717
#        102980
#        115037
#        125047
#        138965
#        172067
#        186970
#        207045
#        221530
#
# Disc length: 3201 seconds
#
# Revision: 4
# Processed by: cddbd v1.4PL0 Copyright (c) Steve Scherf et al.
# Submitted via: ExactAudioCopy v0.90b3
#
DISCID=cc0c7f0e
DTITLE=Nanci Griffith - Wings To Fly And A Place To Be
DYEAR=1900
DGENRE=Country
TTITLE0=From A Distance
TTITLE1=I Wish It Would Rain
TTITLE2=Lone Star State Of Mind
TTITLE3=Listen To The Radio
TTITLE4=It's A Hard Life Wherever You Go
TTITLE5=Trouble In The Fields
TTITLE6=Outbound Plane
TTITLE7=Ford Econoline
TTITLE8=Gulf Coast Highway
TTITLE9=Love At The Five And Dime
TTITLE10=I Knew Love
TTITLE11=Sweet Dreams Will Come
TTITLE12=Spin On A Red Brick Floor
TTITLE13=I Don't Want To Talk About Love
EXTD=
EXTT0=
EXTT1=
EXTT2=
EXTT3=
EXTT4=
EXTT5=
EXTT6=
EXTT7=
EXTT8=
EXTT9=
EXTT10=
EXTT11=
EXTT12=
EXTT13=
PLAYORDER=
